<svg xmlns="http://www.w3.org/2000/svg" width="1200" height="630" viewBox="0 0 1200 630">
  <defs>
    <radialGradient id="glow" cx="50%" cy="40%" r="55%">
      <stop offset="0%" stop-color="#00D992" stop-opacity="0.18"/>
      <stop offset="100%" stop-color="#050a0e" stop-opacity="0"/>
    </radialGradient>
    <linearGradient id="accent" x1="0%" y1="0%" x2="100%" y2="0%">
      <stop offset="0%" stop-color="#00D992"/>
      <stop offset="100%" stop-color="#00b8d4"/>
    </linearGradient>
  </defs>
  <!-- Background -->
  <rect width="1200" height="630" fill="#050a0e"/>
  <!-- Glow -->
  <rect width="1200" height="630" fill="url(#glow)"/>
  <!-- Grid lines subtle -->
  <g stroke="#ffffff" stroke-opacity="0.03" stroke-width="1">
    <line x1="0" y1="105" x2="1200" y2="105"/>
    <line x1="0" y1="210" x2="1200" y2="210"/>
    <line x1="0" y1="315" x2="1200" y2="315"/>
    <line x1="0" y1="420" x2="1200" y2="420"/>
    <line x1="0" y1="525" x2="1200" y2="525"/>
    <line x1="200" y1="0" x2="200" y2="630"/>
    <line x1="400" y1="0" x2="400" y2="630"/>
    <line x1="600" y1="0" x2="600" y2="630"/>
    <line x1="800" y1="0" x2="800" y2="630"/>
    <line x1="1000" y1="0" x2="1000" y2="630"/>
  </g>
  <!-- Logo hex -->
  <rect x="80" y="72" width="44" height="44" rx="10" fill="#00D992"/>
  <text x="102" y="101" font-size="22" font-weight="bold" text-anchor="middle" fill="#050a0e" font-family="sans-serif">H</text>
  <!-- Brand name -->
  <text x="140" y="101" font-size="22" font-weight="700" fill="#ffffff" font-family="sans-serif" letter-spacing="2">HADALEUM</text>
  <!-- Headline -->
  <text x="80" y="260" font-size="64" font-weight="700" fill="#ffffff" font-family="sans-serif" letter-spacing="-1">Copy smart money.</text>
  <text x="80" y="340" font-size="64" font-weight="700" fill="url(#accent)" font-family="sans-serif" letter-spacing="-1">Keep your keys.</text>
  <!-- Subtext -->
  <text x="80" y="405" font-size="24" fill="#8b9ab0" font-family="sans-serif">Track 2,796 elite Ethereum wallets. AI signals. Non-custodial copy trading.</text>
  <!-- Stats bar -->
  <rect x="80" y="470" width="1040" height="1" fill="#ffffff" fill-opacity="0.08"/>
  <text x="80" y="520" font-size="18" font-weight="600" fill="#00D992" font-family="sans-serif">2,796</text>
  <text x="80" y="545" font-size="14" fill="#5a6a7e" font-family="sans-serif">WALLETS TRACKED</text>
  <text x="300" y="520" font-size="18" font-weight="600" fill="#00D992" font-family="sans-serif">$0</text>
  <text x="300" y="545" font-size="14" fill="#5a6a7e" font-family="sans-serif">USER FUNDS HELD</text>
  <text x="520" y="520" font-size="18" font-weight="600" fill="#00D992" font-family="sans-serif">Claude AI</text>
  <text x="520" y="545" font-size="14" fill="#5a6a7e" font-family="sans-serif">SIGNAL INTELLIGENCE</text>
  <text x="780" y="520" font-size="18" font-weight="600" fill="#00D992" font-family="sans-serif">$19/mo</text>
  <text x="780" y="545" font-size="14" fill="#5a6a7e" font-family="sans-serif">PRO PLAN</text>
  <text x="980" y="520" font-size="18" font-weight="600" fill="#ffffff" font-family="sans-serif">hadaleum.com</text>
  <text x="980" y="545" font-size="14" fill="#5a6a7e" font-family="sans-serif">ETHEREUM INTELLIGENCE</text>
</svg>
